<svg width="20" height="21" viewBox="0 0 20 21" fill="none" xmlns="http://www.w3.org/2000/svg">
<g clip-path="url(#clip0_4244_277)">
<path d="M4.46429 12.1146L3.76311 14.699L1.20033 14.7525C0.434429 13.35 0 11.7453 0 10.04C0 8.39103 0.40618 6.83602 1.12616 5.4668H1.12671L3.40831 5.87979L4.40779 8.11893C4.1986 8.72105 4.08458 9.36742 4.08458 10.04C4.08466 10.77 4.21859 11.4694 4.46429 12.1146Z" fill="#FBBB00"/>
<path d="M19.8244 8.32324C19.9398 8.92669 19.9999 9.54989 19.9999 10.1868C19.9999 10.901 19.9243 11.5976 19.7803 12.2696C19.2914 14.5563 18.0141 16.5531 16.2446 17.9661L16.244 17.9656L13.3787 17.8203L12.9732 15.3056C14.1473 14.6216 15.0649 13.5511 15.5483 12.2696H10.1785V8.32324H15.6266H19.8244Z" fill="#518EF8"/>
<path d="M16.2495 17.9227L16.25 17.9232C14.5441 19.2908 12.3771 20.1091 10.0181 20.1091C6.22721 20.1091 2.93133 17.9958 1.25 14.8857L4.4759 12.252C5.31654 14.4897 7.48081 16.0826 10.0181 16.0826C11.1087 16.0826 12.1304 15.7886 13.0072 15.2752L16.2495 17.9227Z" fill="#28B446"/>
<path d="M16.4286 2.40231L13.2073 5.04385C12.3009 4.47637 11.2295 4.14855 10.0817 4.14855C7.48981 4.14855 5.28748 5.81982 4.48983 8.14509L1.25054 5.48877H1.25C2.90489 2.29287 6.23868 0.109375 10.0817 0.109375C12.4943 0.109375 14.7065 0.9702 16.4286 2.40231Z" fill="#F14336"/>
</g>
<defs>
<clipPath id="clip0_4244_277">
<rect width="20" height="20" fill="white" transform="translate(0 0.109375)"/>
</clipPath>
</defs>
</svg>
